HIERARCHY
ROOT Hips
{
	OFFSET 0.000000 0.000000 0.000000
	CHANNELS 6 Xposition Yposition Zposition Zrotation Yrotation Xrotation 
	JOINT LHipJoint
	{
		OFFSET 0.000000 0.000000 0.000000
		CHANNELS 3 Zrotation Yrotation Xrotation
		JOINT LeftUpLeg
		{
			OFFSET 1.363060 -1.794630 0.839290
			CHANNELS 3 Zrotation Yrotation Xrotation
			JOINT LeftLeg
			{
				OFFSET 2.448110 -6.726130 0.000000
				CHANNELS 3 Zrotation Yrotation Xrotation
				JOINT LeftFoot
				{
					OFFSET 2.562200 -7.039590 0.000000
					CHANNELS 3 Zrotation Yrotation Xrotation
					JOINT LeftToeBase
					{
						OFFSET 0.157640 -0.433110 2.322550
						CHANNELS 3 Zrotation Yrotation Xrotation
						End Site
						{
							OFFSET 0.000000 0.000000 0.000000
						}
					}
				}
			}
		}
	}
	JOINT RHipJoint
	{
		OFFSET 0.000000 0.000000 0.000000
		CHANNELS 3 Zrotation Yrotation Xrotation
		JOINT RightUpLeg
		{
			OFFSET -1.305520 -1.794630 0.839290
			CHANNELS 3 Zrotation Yrotation Xrotation
			JOINT RightLeg
			{
				OFFSET -2.542530 -6.985550 0.000000
				CHANNELS 3 Zrotation Yrotation Xrotation
				JOINT RightFoot
				{
					OFFSET -2.568260 -7.056230 0.000000
					CHANNELS 3 Zrotation Yrotation Xrotation
					JOINT RightToeBase
					{
						OFFSET -0.164730 -0.452590 2.363150
						CHANNELS 3 Zrotation Yrotation Xrotation
						End Site
						{
							OFFSET 0.000000 0.000000 0.000000
						}
					}
				}
			}
		}
	}
	JOINT LowerBack
	{
		OFFSET 0.000000 0.000000 0.000000
		CHANNELS 3 Zrotation Yrotation Xrotation
		JOINT Spine
		{
			OFFSET 0.028270 2.035590 -0.193380
			CHANNELS 3 Zrotation Yrotation Xrotation
			JOINT Spine1
			{
				OFFSET 0.056720 2.048850 -0.042750
				CHANNELS 3 Zrotation Yrotation Xrotation
				JOINT Neck
				{
					OFFSET 0.000000 0.000000 0.000000
					CHANNELS 3 Zrotation Yrotation Xrotation
					JOINT Neck1
					{
						OFFSET -0.054170 1.746240 0.172020
						CHANNELS 3 Zrotation Yrotation Xrotation
						JOINT Head
						{
							OFFSET 0.104070 1.761360 -0.123970
							CHANNELS 3 Zrotation Yrotation Xrotation
							End Site
							{
								OFFSET 0.000000 0.000000 0.000000
							}
						}
					}
				}
				JOINT LeftShoulder
				{
					OFFSET 0.000000 0.000000 0.000000
					CHANNELS 3 Zrotation Yrotation Xrotation
					JOINT LeftArm
					{
						OFFSET 3.362410 1.200890 -0.311210
						CHANNELS 3 Zrotation Yrotation Xrotation
						JOINT LeftForeArm
						{
							OFFSET 4.983000 -0.000000 -0.000000
							CHANNELS 3 Zrotation Yrotation Xrotation
							JOINT LeftHand
							{
								OFFSET 3.483560 -0.000000 -0.000000
								CHANNELS 3 Zrotation Yrotation Xrotation
								JOINT LeftFingerBase
								{
									OFFSET 0.000000 0.000000 0.000000
									CHANNELS 3 Zrotation Yrotation Xrotation
									JOINT LeftHandIndex1
									{
										OFFSET 0.715260 -0.000000 -0.000000
										CHANNELS 3 Zrotation Yrotation Xrotation
										End Site
										{
											OFFSET 0.000000 0.000000 0.000000
										}
									}
								}
								JOINT LThumb
								{
									OFFSET 0.000000 0.000000 0.000000
									CHANNELS 3 Zrotation Yrotation Xrotation
									End Site
									{
										OFFSET 0.000000 0.000000 0.000000
									}
								}
							}
						}
					}
				}
				JOINT RightShoulder
				{
					OFFSET 0.000000 0.000000 0.000000
					CHANNELS 3 Zrotation Yrotation Xrotation
					JOINT RightArm
					{
						OFFSET -3.136600 1.374050 -0.404650
						CHANNELS 3 Zrotation Yrotation Xrotation
						JOINT RightForeArm
						{
							OFFSET -5.241900 -0.000000 -0.000000
							CHANNELS 3 Zrotation Yrotation Xrotation
							JOINT RightHand
							{
								OFFSET -3.444170 -0.000000 -0.000000
								CHANNELS 3 Zrotation Yrotation Xrotation
								JOINT RightFingerBase
								{
									OFFSET 0.000000 0.000000 0.000000
									CHANNELS 3 Zrotation Yrotation Xrotation
									JOINT RightHandIndex1
									{
										OFFSET -0.622530 -0.000000 -0.000000
										CHANNELS 3 Zrotation Yrotation Xrotation
										End Site
										{
											OFFSET 0.000000 0.000000 0.000000
										}
									}
								}
								JOINT RThumb
								{
									OFFSET 0.000000 0.000000 0.000000
									CHANNELS 3 Zrotation Yrotation Xrotation
									End Site
									{
										OFFSET 0.000000 0.000000 0.000000
									}
								}
							}
						}
					}
				}
			}
		}
	}
}
MOTION
Frames: 7
Frame Time: 0.008333
8.947328 16.334642 25.217692 -169.706342 -6.920882 -178.550469 4.207623 -0.082869 -0.053721 -13.147436 -22.800992 -30.538182 6.805576 18.829221 53.014653 5.467797 -18.075055 -13.145500 6.077200 -14.502700 -45.290700 -6.393038 -1.710374 0.594155 33.455294 5.651702 -24.388478 -5.188780 -17.314855 53.599015 3.200453 -22.668002 -28.746646 -0.601300 -4.963900 13.805600 -3.976961 3.480951 16.300588 5.461088 2.785377 17.244680 -0.895746 2.745042 -18.662005 -15.514124 -4.948578 -16.497605 20.470021 -6.629189 -9.766286 5.723600 -4.510200 -0.888000 1.083346 -10.765278 -0.401499 -39.058369 -48.725447 23.844967 58.487230 -49.562278 -30.815316 0.228224 0.767795 -4.358976 -28.399336 -35.838807 18.059400 -7.125000 0.000000 0.000000 -31.331700 -5.864000 40.745800 -1.350889 9.047453 2.555135 75.524019 -10.315871 49.739975 -102.320278 54.846201 -71.774946 -0.693613 -0.141094 2.902849 2.887249 -64.517715 -3.228700 7.125000 0.000000 0.000000 87.267500 71.200700 106.989500 
8.906064 16.333829 25.233965 -169.603826 -7.452649 -178.069638 4.268622 -0.164568 -0.108298 -12.979488 -22.350970 -31.378635 6.797767 18.895112 52.900503 5.561774 -19.063233 -12.953863 5.988000 -14.416700 -44.933600 -6.487984 -1.638420 0.581425 33.498967 6.353580 -24.978646 -5.252520 -17.475481 53.827205 3.567134 -23.644775 -28.390714 -0.573100 -4.847900 13.475200 -3.252830 3.589822 15.224669 5.552115 3.096848 17.613207 -1.371493 2.825422 -17.774041 -15.926276 -5.297672 -16.306519 20.659054 -7.040135 -10.471164 5.847600 -4.778000 -0.986500 1.129735 -10.828669 -0.246251 -38.073043 -46.983845 21.373227 55.468668 -48.645919 -28.021154 0.343390 0.715616 -3.730980 -28.776116 -35.248034 18.114700 -7.125000 0.000000 0.000000 -31.602900 -5.323300 40.974200 -1.409403 8.964334 2.455412 75.317612 -9.152133 49.103501 -103.241480 54.818893 -72.574270 -0.694945 -0.123743 3.494649 6.538043 -64.916451 -6.540600 7.125000 0.000000 0.000000 86.911600 70.215000 107.765500 
8.846551 16.336502 25.253028 -169.568435 -8.003592 -177.119426 4.361934 -0.299982 -0.270995 -12.783507 -22.166944 -32.518777 6.695597 18.971985 52.581856 5.568337 -20.248852 -12.310181 5.677800 -14.108600 -43.674300 -6.590321 -1.514424 0.458723 33.302678 6.875223 -25.886641 -5.201683 -17.588778 53.690816 3.860165 -24.275409 -27.888358 -0.577600 -4.866700 13.528800 -2.399940 3.418618 15.322202 5.185120 3.193697 16.368009 -1.979032 2.715143 -17.968426 -15.848027 -5.239048 -16.145916 20.769090 -6.991609 -10.847813 5.870600 -4.805900 -1.124000 1.101658 -10.790649 0.085710 -38.264029 -44.952276 19.550889 51.874507 -47.324920 -24.838432 0.465875 0.644399 -1.295340 -28.875716 -35.043553 18.121000 -7.125000 0.000000 0.000000 -31.714300 -5.082900 41.057100 -1.258544 8.816622 2.418896 75.481891 -9.235482 49.633220 -104.800049 54.771670 -73.980947 -0.748669 -0.136655 3.356179 0.201169 -64.553970 -0.858100 7.125000 0.000000 0.000000 88.670500 71.947500 107.618000 
8.766464 16.368119 25.268139 -169.653182 -9.350266 -176.437692 4.378209 -0.404465 -0.333417 -12.863590 -22.814427 -33.153491 6.450535 18.931219 51.908570 5.481117 -21.395704 -11.380765 5.361100 -13.779300 -42.360300 -6.599907 -1.452747 0.387300 32.825092 6.539309 -26.563811 -5.052816 -17.539099 53.223871 3.960210 -24.460303 -27.804400 -0.635300 -5.099800 14.193300 -1.377236 3.092351 14.528784 5.218551 3.021127 15.913862 -2.550149 2.507827 -17.373400 -16.099417 -5.220872 -15.163239 20.696582 -7.038774 -11.790546 5.942500 -4.918400 -1.467300 1.110444 -10.861125 0.312690 -38.429827 -43.142678 18.604801 49.153229 -46.066034 -22.488858 0.556371 0.568242 1.391916 -27.913018 -34.521345 17.259200 -7.125000 0.000000 0.000000 -31.409200 -4.381000 40.128500 -1.221822 8.667006 2.338639 75.427251 -9.503154 50.291798 -106.579172 54.609363 -75.600358 -0.813976 -0.188981 1.304057 -14.400710 -62.563333 12.120800 7.125000 0.000000 0.000000 92.930400 76.212800 107.201800 
8.687074 16.426470 25.272904 -169.841682 -10.545805 -175.741923 4.363130 -0.508802 -0.487430 -13.158374 -23.243038 -33.378682 6.092163 18.749455 50.911094 5.386882 -22.388732 -10.383137 5.120300 -13.518000 -41.339800 -6.558225 -1.422379 0.256974 32.209012 6.259364 -26.834869 -4.796306 -17.388450 52.414195 4.015873 -24.520397 -27.789501 -0.672000 -5.242100 14.600200 -0.374996 3.130097 13.913627 5.593453 3.354545 13.954280 -3.338059 2.508232 -16.983827 -17.656967 -4.975819 -10.881038 21.281984 -7.057125 -13.641951 6.560100 -5.090100 -2.370200 0.957505 -11.013737 0.684982 -41.094767 -40.665284 20.056177 47.289344 -44.971354 -20.929198 0.665926 0.490601 4.199549 -28.625346 -34.732640 17.853600 -7.125000 0.000000 0.000000 -31.724400 -4.637300 40.843000 -1.112520 8.297382 2.226523 75.529553 -11.763210 49.429278 -109.534260 54.345788 -78.130970 -0.815373 -0.168786 3.307378 -7.135742 -65.063143 5.733700 7.125000 0.000000 0.000000 95.069500 73.868500 112.014700 
8.609777 16.495863 25.271626 -170.084649 -11.447190 -175.483179 4.237723 -0.487031 -0.456270 -13.594518 -23.366959 -33.079635 5.647698 18.396271 49.610314 5.283354 -23.613360 -9.075393 4.773300 -13.123800 -39.833700 -6.469932 -1.427397 0.257360 31.598885 5.801975 -26.591701 -4.477298 -17.086291 51.321751 4.157434 -24.684742 -27.514483 -0.689500 -5.308500 14.790500 -0.188806 2.684477 14.621472 5.296278 2.828642 14.135328 -3.309825 2.211364 -17.388978 -16.552478 -5.515035 -14.754982 20.784469 -7.421859 -11.624251 5.991300 -5.082800 -1.427200 1.051820 -10.756634 1.017734 -40.854049 -38.085224 17.884726 45.818710 -44.311698 -19.630768 0.715636 0.435764 6.007419 -29.456206 -34.641326 18.390400 -7.125000 0.000000 0.000000 -32.096200 -4.673400 41.556600 -1.079937 8.413704 2.251252 75.373641 -10.614235 50.757562 -111.426668 54.160245 -79.833832 -0.869652 -0.194886 1.671064 -15.875598 -62.886191 13.444300 7.125000 0.000000 0.000000 95.807500 76.519000 109.764600 
8.524924 16.578507 25.274532 -170.179222 -12.236700 -175.442616 4.111728 -0.459920 -0.457602 -14.058590 -23.219724 -32.442422 5.135069 17.918443 48.096340 5.163030 -24.677256 -7.575538 4.489700 -12.785000 -38.568700 -6.315632 -1.486329 0.274490 31.109693 5.265531 -26.072081 -4.089009 -16.703224 49.966145 4.410672 -25.068317 -27.014672 -0.701400 -5.353000 14.918200 0.038524 2.597125 14.534469 5.872182 2.712967 13.918308 -3.460298 2.136267 -17.228975 -16.842198 -5.575344 -14.729911 20.794717 -7.475839 -11.610580 6.025900 -5.096800 -1.410800 1.020592 -10.715687 1.280936 -41.842542 -35.593741 17.685606 44.367412 -43.437973 -18.417737 0.766806 0.386801 6.678557 -29.544280 -34.394507 18.354800 -7.125000 0.000000 0.000000 -32.187600 -4.427200 41.597100 -1.123553 8.348666 2.202808 75.141969 -10.704937 50.761036 -113.464206 53.917135 -81.515122 -0.851020 -0.169411 3.124188 -7.231268 -65.095345 5.789300 7.125000 0.000000 0.000000 95.260200 73.876700 112.198100 
